<svg width="40" height="40" viewBox="0 0 40 40" fill="none" xmlns="http://www.w3.org/2000/svg">
<path fill-rule="evenodd" clip-rule="evenodd" d="M20 40C31.0457 40 40 31.0457 40 20C40 8.9543 31.0457 0 20 0C8.9543 0 0 8.9543 0 20C0 31.0457 8.9543 40 20 40Z" fill="#9FA08A"/>
<path d="M15.5 9C11.9162 9 9 11.9162 9 15.5V24.5C9 28.0838 11.9162 31 15.5 31H24.5C28.0838 31 31 28.0838 31 24.5V15.5C31 11.9162 28.0838 9 24.5 9H15.5ZM15.5 10H24.5C27.5432 10 30 12.4568 30 15.5V24.5C30 27.5432 27.5432 30 24.5 30H15.5C12.4568 30 10 27.5432 10 24.5V15.5C10 12.4568 12.4568 10 15.5 10ZM26 13C25.7348 13 25.4804 13.1054 25.2929 13.2929C25.1054 13.4804 25 13.7348 25 14C25 14.2652 25.1054 14.5196 25.2929 14.7071C25.4804 14.8946 25.7348 15 26 15C26.2652 15 26.5196 14.8946 26.7071 14.7071C26.8946 14.5196 27 14.2652 27 14C27 13.7348 26.8946 13.4804 26.7071 13.2929C26.5196 13.1054 26.2652 13 26 13ZM20 14.5C16.9684 14.5 14.5 16.9684 14.5 20C14.5 23.0316 16.9684 25.5 20 25.5C23.0316 25.5 25.5 23.0316 25.5 20C25.5 16.9684 23.0316 14.5 20 14.5ZM20 15.5C22.4912 15.5 24.5 17.5088 24.5 20C24.5 22.4912 22.4912 24.5 20 24.5C17.5088 24.5 15.5 22.4912 15.5 20C15.5 17.5088 17.5088 15.5 20 15.5Z" fill="black"/>
</svg>
