<svg width="249" height="215" viewBox="0 0 249 215" fill="none" xmlns="http://www.w3.org/2000/svg">
<path d="M33 0L61.5 22.5L2 47L33 0Z" fill="#828260"/>
<path d="M42.5 0.5H113L66 20.5L42.5 0.5Z" fill="#828260"/>
<path d="M135.5 0.5H206L182.5 20.5L135.5 0.5Z" fill="#DEC5B0"/>
<path d="M24.5 83.5L70.5 51.5L0 50.5L24.5 83.5Z" fill="#828260"/>
<path d="M54 31.5L44 45H22.5L54 31.5Z" fill="#828260"/>
<path d="M65 26.5L82 45.5H50L65 26.5Z" fill="#828260"/>
<path d="M27.5 88L74 56L88 100L61 111.5L41 107.5L27.5 88Z" fill="#828260"/>
<path d="M47 114.5L60.5 117L68.5 143.5L47 114.5Z" fill="#828260"/>
<path d="M65 116L90 105L101.5 141.5L90 174.5L79 158.5L65 116Z" fill="#828260"/>
<path d="M120 103.5V214.5L93.5 178.5L120 103.5Z" fill="#828260"/>
<path d="M128 103.5L154.5 179L128 214.5V103.5Z" fill="#828260"/>
<path d="M158.5 105L183 116L169 159L158 173.5L147 141L158.5 105Z" fill="#828260"/>
<path d="M201 114.5L179.5 144L188 117L201 114.5Z" fill="#828260"/>
<path d="M174.5 56.5L220.5 88L206.5 108L186 112L160 100L174.5 56.5Z" fill="#828260"/>
<path d="M224.5 84L248.5 50L177 51.5L224.5 84Z" fill="#DEC5B0"/>
<path d="M215 0L246 47L188 23L215 0Z" fill="#DEC5B0"/>
<path d="M194.5 32L226 45L205 45.5L194.5 32Z" fill="#DEC5B0"/>
<path d="M183.5 26.5L198 45.5H166.5L183.5 26.5Z" fill="#DEC5B0"/>
<path d="M132.5 5L178.5 24.5L163.5 41L146.5 27.5L132.5 5Z" fill="#DEC5B0"/>
<path d="M124 1.5L140.5 28L124 42L108 28L124 1.5Z" fill="#828260"/>
<path d="M69.5 24.5L115.5 5L102 27.5L85 41L69.5 24.5Z" fill="#828260"/>
</svg>
