<svg width="40" height="40" viewBox="0 0 40 40" fill="none" xmlns="http://www.w3.org/2000/svg">
<path d="M20 40C31.0457 40 40 31.0457 40 20C40 8.95433 31.0457 0 20 0C8.95433 0 0 8.95433 0 20C0 31.0457 8.95433 40 20 40Z" fill="#9FA08A"/>
<path d="M7.44856 20.9785C9.78655 19.6906 12.3964 18.6158 14.8349 17.5355C19.03 15.766 23.2419 14.0271 27.4962 12.4083C28.324 12.1325 29.8112 11.8627 29.957 13.0894C29.8772 14.8257 29.5487 16.5519 29.3234 18.2781C28.7515 22.0741 28.0905 25.8571 27.4459 29.6406C27.2238 30.9008 25.645 31.5532 24.6349 30.7467C22.2072 29.1069 19.7609 27.4831 17.3642 25.8052C16.5791 25.0075 17.3071 23.8619 18.0083 23.2922C20.0078 21.3217 22.1283 19.6476 24.0233 17.5752C24.5345 16.3408 23.0241 17.3811 22.526 17.6999C19.7886 19.5862 17.1183 21.5877 14.2323 23.2456C12.7581 24.0571 11.04 23.3636 9.56646 22.9107C8.24528 22.3637 6.30926 21.8126 7.44843 20.9786L7.44856 20.9785Z" fill="black"/>
</svg>
