<svg width="40" height="40" viewBox="0 0 40 40" fill="none" xmlns="http://www.w3.org/2000/svg">
<path d="M20 40C31.0457 40 40 31.0457 40 20C40 8.9543 31.0457 0 20 0C8.9543 0 0 8.9543 0 20C0 31.0457 8.9543 40 20 40Z" fill="#9FA08A"/>
<path d="M29.1729 11.0201C26.9304 8.77681 23.9493 7.54106 20.7743 7.54004C14.2314 7.54004 8.90626 12.8632 8.90295 19.4063C8.90295 21.4989 9.44971 23.5389 10.4868 25.3377L8.80347 31.488L15.096 29.8368C16.8306 30.7832 18.7821 31.2822 20.7707 31.2822H20.7743C27.3156 31.2822 32.6423 25.959 32.6456 19.4152C32.6458 16.2437 31.4136 13.2626 29.1729 11.0201ZM20.7743 29.279H20.7707C19.0004 29.2773 17.2639 28.8015 15.7493 27.9031L15.387 27.6881L11.6548 28.6684L12.6509 25.0283L12.4148 24.6556C11.4276 23.0858 10.9055 21.2694 10.9073 19.406C10.9091 13.9676 15.3356 9.54263 20.7776 9.54263C23.4124 9.54442 25.8913 10.5715 27.754 12.436C29.6164 14.3004 30.6427 16.778 30.6409 19.4139C30.6394 24.8546 26.2129 29.279 20.7743 29.279ZM26.1864 21.891C25.8898 21.7437 24.4319 21.0265 24.1604 20.927C23.889 20.8275 23.6897 20.7776 23.4928 21.0743C23.2959 21.3707 22.7275 22.0383 22.5537 22.2373C22.3794 22.436 22.2074 22.4609 21.911 22.3118C21.6144 22.1625 20.6575 21.8503 19.5245 20.84C18.6439 20.0533 18.0473 19.0821 17.8768 18.7855C17.7028 18.488 17.8573 18.3283 18.0046 18.1799C18.1397 18.0476 18.3028 17.8336 18.4503 17.6606C18.5976 17.4874 18.6472 17.364 18.747 17.166C18.8465 16.9681 18.7966 16.7951 18.722 16.6467C18.6475 16.4977 18.0544 15.038 17.8076 14.4449C17.568 13.8661 17.323 13.9442 17.14 13.9353C16.9678 13.9274 16.7691 13.9256 16.5719 13.9256C16.375 13.9256 16.0518 13.9994 15.7819 14.2966C15.5084 14.5933 14.7431 15.3105 14.7431 16.7699C14.7431 18.2293 15.8066 19.6391 15.9541 19.8373C16.1015 20.0352 18.0458 23.0288 21.0198 24.3144C21.7284 24.6197 22.2805 24.8027 22.712 24.9393C23.4221 25.165 24.0701 25.1329 24.5818 25.0566C25.1496 24.9713 26.336 24.3393 26.5826 23.6468C26.8296 22.9542 26.8296 22.3612 26.7548 22.237C26.6798 22.1129 26.4846 22.0383 26.1864 21.891Z" fill="black"/>
</svg>
